solid OpenSCAD_Model
  facet normal -1 0 0
    outer loop
      vertex 0 0 0
      vertex 0 0 18.2
      vertex 0 88 0
    endloop
  endfacet
  facet normal -1 0 0
    outer loop
      vertex 0 88 0
      vertex 0 0 18.2
      vertex 0 88 18.2
    endloop
  endfacet
  facet normal 0 -1 0
    outer loop
      vertex 9.135 0 4.5
      vertex 0 0 0
      vertex 46.27 0 0
    endloop
  endfacet
  facet normal 0 -1 0
    outer loop
      vertex 9.135 0 4.5
      vertex 9.135 0 18.2
      vertex 0 0 18.2
    endloop
  endfacet
  facet normal 0 -1 0
    outer loop
      vertex 46.27 0 18.2
      vertex 37.135 0 18.2
      vertex 46.27 0 0
    endloop
  endfacet
  facet normal 0 -1 0
    outer loop
      vertex 37.135 0 18.2
      vertex 37.135 0 4.5
      vertex 46.27 0 0
    endloop
  endfacet
  facet normal 0 -1 0
    outer loop
      vertex 0 0 18.2
      vertex 0 0 0
      vertex 9.135 0 4.5
    endloop
  endfacet
  facet normal 0 -1 0
    outer loop
      vertex 37.135 0 4.5
      vertex 9.135 0 4.5
      vertex 46.27 0 0
    endloop
  endfacet
  facet normal 0 0 -1
    outer loop
      vertex 0 0 0
      vertex 0 88 0
      vertex 46.27 0 0
    endloop
  endfacet
  facet normal 0 0 -1
    outer loop
      vertex 46.27 67.135 0
      vertex 0 88 0
      vertex 46.27 88 0
    endloop
  endfacet
  facet normal 0 0 -1
    outer loop
      vertex 46.27 0 0
      vertex 0 88 0
      vertex 46.27 20.865 0
    endloop
  endfacet
  facet normal 0 0 -1
    outer loop
      vertex 46.27 67.135 0
      vertex 67.135 67.135 0
      vertex 46.27 20.865 0
    endloop
  endfacet
  facet normal 0 0 -1
    outer loop
      vertex 46.27 67.135 0
      vertex 46.27 20.865 0
      vertex 0 88 0
    endloop
  endfacet
  facet normal 0 0 -1
    outer loop
      vertex 46.27 20.865 0
      vertex 67.135 67.135 0
      vertex 67.135 20.865 0
    endloop
  endfacet
  facet normal 0 1 0
    outer loop
      vertex 37.135 88 4.5
      vertex 46.27 88 0
      vertex 9.135 88 4.5
    endloop
  endfacet
  facet normal 0 1 0
    outer loop
      vertex 0 88 0
      vertex 0 88 18.2
      vertex 9.135 88 4.5
    endloop
  endfacet
  facet normal 0 1 0
    outer loop
      vertex 0 88 0
      vertex 9.135 88 4.5
      vertex 46.27 88 0
    endloop
  endfacet
  facet normal 0 1 0
    outer loop
      vertex 46.27 88 0
      vertex 37.135 88 4.5
      vertex 37.135 88 18.2
    endloop
  endfacet
  facet normal 0 1 0
    outer loop
      vertex 46.27 88 0
      vertex 37.135 88 18.2
      vertex 46.27 88 18.2
    endloop
  endfacet
  facet normal 0 1 0
    outer loop
      vertex 9.135 88 4.5
      vertex 0 88 18.2
      vertex 9.135 88 18.2
    endloop
  endfacet
  facet normal 0 0 1
    outer loop
      vertex 0 88 18.2
      vertex 0 0 18.2
      vertex 9.135 0 18.2
    endloop
  endfacet
  facet normal 0 0 1
    outer loop
      vertex 9.135 88 18.2
      vertex 0 88 18.2
      vertex 9.135 0 18.2
    endloop
  endfacet
  facet normal 1 0 0
    outer loop
      vertex 9.135 88 4.5
      vertex 9.135 88 18.2
      vertex 9.135 0 18.2
    endloop
  endfacet
  facet normal 1 0 0
    outer loop
      vertex 9.135 0 4.5
      vertex 9.135 88 4.5
      vertex 9.135 0 18.2
    endloop
  endfacet
  facet normal 0 0 1
    outer loop
      vertex 67.135 58 4.5
      vertex 37.135 30 4.5
      vertex 67.135 30 4.5
    endloop
  endfacet
  facet normal 0 0 1
    outer loop
      vertex 37.135 58 4.5
      vertex 37.135 30 4.5
      vertex 67.135 58 4.5
    endloop
  endfacet
  facet normal 0 0 1
    outer loop
      vertex 37.135 0 4.5
      vertex 37.135 30 4.5
      vertex 9.135 88 4.5
    endloop
  endfacet
  facet normal 0 0 1
    outer loop
      vertex 9.135 88 4.5
      vertex 37.135 30 4.5
      vertex 37.135 58 4.5
    endloop
  endfacet
  facet normal 0 0 1
    outer loop
      vertex 9.135 88 4.5
      vertex 37.135 58 4.5
      vertex 37.135 88 4.5
    endloop
  endfacet
  facet normal 0 0 1
    outer loop
      vertex 9.135 0 4.5
      vertex 37.135 0 4.5
      vertex 9.135 88 4.5
    endloop
  endfacet
  facet normal -1 0 0
    outer loop
      vertex 37.135 30 18.2
      vertex 37.135 30 4.5
      vertex 37.135 0 18.2
    endloop
  endfacet
  facet normal -1 0 0
    outer loop
      vertex 37.135 0 18.2
      vertex 37.135 30 4.5
      vertex 37.135 0 4.5
    endloop
  endfacet
  facet normal 0 0 1
    outer loop
      vertex 37.135 30 18.2
      vertex 37.135 0 18.2
      vertex 46.27 0 18.2
    endloop
  endfacet
  facet normal 0 0 1
    outer loop
      vertex 67.135 20.865 18.2
      vertex 37.135 30 18.2
      vertex 46.27 20.865 18.2
    endloop
  endfacet
  facet normal 0 0 1
    outer loop
      vertex 46.27 20.865 18.2
      vertex 37.135 30 18.2
      vertex 46.27 0 18.2
    endloop
  endfacet
  facet normal 0 0 1
    outer loop
      vertex 67.135 30 18.2
      vertex 37.135 30 18.2
      vertex 67.135 20.865 18.2
    endloop
  endfacet
  facet normal 1 0 0
    outer loop
      vertex 46.27 0 18.2
      vertex 46.27 0 0
      vertex 46.27 20.865 0
    endloop
  endfacet
  facet normal 1 0 0
    outer loop
      vertex 46.27 20.865 18.2
      vertex 46.27 0 18.2
      vertex 46.27 20.865 0
    endloop
  endfacet
  facet normal 0 -1 0
    outer loop
      vertex 46.27 20.865 18.2
      vertex 46.27 20.865 0
      vertex 67.135 20.865 0
    endloop
  endfacet
  facet normal 0 -1 0
    outer loop
      vertex 67.135 20.865 18.2
      vertex 46.27 20.865 18.2
      vertex 67.135 20.865 0
    endloop
  endfacet
  facet normal 1 0 0
    outer loop
      vertex 67.135 30 4.5
      vertex 67.135 20.865 0
      vertex 67.135 67.135 0
    endloop
  endfacet
  facet normal 1 0 0
    outer loop
      vertex 67.135 30 4.5
      vertex 67.135 30 18.2
      vertex 67.135 20.865 18.2
    endloop
  endfacet
  facet normal 1 0 0
    outer loop
      vertex 67.135 67.135 18.2
      vertex 67.135 58 18.2
      vertex 67.135 67.135 0
    endloop
  endfacet
  facet normal 1 0 0
    outer loop
      vertex 67.135 58 18.2
      vertex 67.135 58 4.5
      vertex 67.135 67.135 0
    endloop
  endfacet
  facet normal 1 0 0
    outer loop
      vertex 67.135 20.865 18.2
      vertex 67.135 20.865 0
      vertex 67.135 30 4.5
    endloop
  endfacet
  facet normal 1 0 0
    outer loop
      vertex 67.135 58 4.5
      vertex 67.135 30 4.5
      vertex 67.135 67.135 0
    endloop
  endfacet
  facet normal 0 1 0
    outer loop
      vertex 46.27 67.135 0
      vertex 46.27 67.135 18.2
      vertex 67.135 67.135 0
    endloop
  endfacet
  facet normal 0 1 0
    outer loop
      vertex 67.135 67.135 0
      vertex 46.27 67.135 18.2
      vertex 67.135 67.135 18.2
    endloop
  endfacet
  facet normal 1 0 0
    outer loop
      vertex 46.27 67.135 18.2
      vertex 46.27 67.135 0
      vertex 46.27 88 0
    endloop
  endfacet
  facet normal 1 0 0
    outer loop
      vertex 46.27 88 18.2
      vertex 46.27 67.135 18.2
      vertex 46.27 88 0
    endloop
  endfacet
  facet normal 0 0 1
    outer loop
      vertex 46.27 67.135 18.2
      vertex 37.135 58 18.2
      vertex 67.135 58 18.2
    endloop
  endfacet
  facet normal 0 0 1
    outer loop
      vertex 46.27 67.135 18.2
      vertex 46.27 88 18.2
      vertex 37.135 88 18.2
    endloop
  endfacet
  facet normal 0 0 1
    outer loop
      vertex 37.135 88 18.2
      vertex 37.135 58 18.2
      vertex 46.27 67.135 18.2
    endloop
  endfacet
  facet normal 0 0 1
    outer loop
      vertex 67.135 67.135 18.2
      vertex 46.27 67.135 18.2
      vertex 67.135 58 18.2
    endloop
  endfacet
  facet normal -1 0 0
    outer loop
      vertex 37.135 88 18.2
      vertex 37.135 88 4.5
      vertex 37.135 58 18.2
    endloop
  endfacet
  facet normal -1 0 0
    outer loop
      vertex 37.135 58 18.2
      vertex 37.135 88 4.5
      vertex 37.135 58 4.5
    endloop
  endfacet
  facet normal 0 -1 0
    outer loop
      vertex 67.135 58 4.5
      vertex 67.135 58 18.2
      vertex 37.135 58 18.2
    endloop
  endfacet
  facet normal 0 -1 0
    outer loop
      vertex 37.135 58 4.5
      vertex 67.135 58 4.5
      vertex 37.135 58 18.2
    endloop
  endfacet
  facet normal 0 1 0
    outer loop
      vertex 67.135 30 18.2
      vertex 67.135 30 4.5
      vertex 37.135 30 18.2
    endloop
  endfacet
  facet normal 0 1 0
    outer loop
      vertex 37.135 30 18.2
      vertex 67.135 30 4.5
      vertex 37.135 30 4.5
    endloop
  endfacet
endsolid OpenSCAD_Model
